<svg id="svg" version="1.1" xmlns="http://www.w3.org/2000/svg" xmlns:xlink="http://www.w3.org/1999/xlink" width="400" height="392.96875000000006" viewBox="0, 0, 400,392.96875000000006"><g id="svgg"><path id="path0" d="M175.391 109.047 C 162.178 122.391,151.302 133.481,151.222 133.692 C 151.044 134.162,163.674 146.875,164.318 146.875 C 164.572 146.875,172.568 138.965,182.088 129.297 C 191.607 119.629,199.549 111.719,199.736 111.719 C 199.923 111.719,207.981 119.585,217.643 129.199 C 227.305 138.813,235.292 146.759,235.392 146.857 C 235.643 147.099,248.438 134.286,248.438 133.792 C 248.438 133.400,199.981 84.757,199.608 84.775 C 199.501 84.780,188.604 95.703,175.391 109.047 M304.856 203.152 L 298.248 209.769 322.658 234.181 C 336.083 247.608,347.235 258.594,347.439 258.594 C 347.644 258.594,350.720 255.592,354.277 251.923 L 360.742 245.253 336.719 221.359 C 323.506 208.218,312.418 197.256,312.080 197.000 C 311.559 196.607,310.446 197.555,304.856 203.152 M64.154 221.210 C 50.783 234.599,39.844 245.808,39.844 246.117 C 39.844 246.426,42.756 249.570,46.314 253.103 L 52.783 259.526 72.192 240.066 C 82.867 229.363,93.875 218.244,96.654 215.357 L 101.707 210.108 95.086 203.487 L 88.464 196.866 64.154 221.210 M113.390 270.280 C 100.117 283.676,89.208 294.839,89.147 295.087 C 89.026 295.584,101.285 307.941,102.075 308.118 C 102.346 308.179,113.445 297.222,126.740 283.771 L 150.912 259.313 144.217 252.619 L 137.523 245.924 113.390 270.280 M255.953 252.446 C 252.464 255.939,249.609 258.972,249.609 259.185 C 249.609 259.398,260.593 270.556,274.018 283.979 L 298.427 308.385 305.044 301.556 L 311.662 294.727 287.375 270.410 C 274.017 257.036,262.910 246.094,262.692 246.094 C 262.474 246.094,259.441 248.952,255.953 252.446 " stroke="none" fill="#f6f7f7" fill-rule="evenodd"></path><path id="path1" d="M183.984 0.428 C 62.601 10.911,-20.171 126.408,9.241 244.262 C 35.512 349.533,142.327 413.560,247.778 387.244 C 353.049 360.973,417.075 254.157,390.759 148.707 C 367.523 55.595,279.134 -7.789,183.984 0.428 M212.305 9.775 C 305.957 15.977,380.508 90.527,386.709 184.180 C 393.530 287.181,315.371 376.369,212.305 383.194 C 99.639 390.654,5.830 296.846,13.291 184.180 C 20.115 81.116,109.306 2.955,212.305 9.775 M297.229 84.879 C 292.421 89.868,249.073 133.203,248.889 133.203 C 248.750 133.203,237.648 122.261,224.220 108.887 L 199.805 84.570 224.121 108.986 C 237.495 122.414,248.438 133.578,248.438 133.795 C 248.438 134.011,245.537 137.085,241.991 140.626 L 235.545 147.063 225.097 136.715 L 214.648 126.367 224.982 136.802 C 230.666 142.540,235.236 147.319,235.139 147.420 C 235.041 147.521,227.061 155.535,217.404 165.228 L 199.848 182.853 182.155 165.163 L 164.462 147.473 166.899 144.928 L 169.336 142.383 166.981 144.629 C 163.971 147.499,164.845 147.889,157.320 140.317 L 150.803 133.759 144.152 140.419 C 140.493 144.082,137.500 147.247,137.500 147.454 C 137.500 147.827,199.616 209.732,200.012 209.754 C 200.241 209.767,235.527 174.307,300.096 109.176 L 311.330 97.845 304.554 91.077 C 298.669 85.199,297.706 84.384,297.229 84.879 M170.897 113.379 L 156.055 128.320 170.996 113.478 C 184.883 99.684,186.113 98.438,185.838 98.438 C 185.783 98.438,179.060 105.161,170.897 113.379 M193.745 117.480 L 188.086 123.242 193.811 117.620 C 197.962 113.543,199.713 112.065,200.179 112.244 C 200.555 112.389,200.723 112.331,200.583 112.105 C 200.058 111.256,199.183 111.944,193.745 117.480 M210.938 122.852 C 212.754 124.678,214.328 126.172,214.436 126.172 C 214.543 126.172,213.145 124.678,211.328 122.852 C 209.511 121.025,207.937 119.531,207.830 119.531 C 207.722 119.531,209.121 121.025,210.938 122.852 M154.468 129.785 L 153.320 131.055 154.590 129.907 C 155.773 128.838,156.039 128.516,155.737 128.516 C 155.670 128.516,155.099 129.087,154.468 129.785 M322.646 158.105 C 309.220 171.587,287.864 193.076,275.188 205.859 C 231.354 250.063,200.274 281.250,200.056 281.250 C 199.936 281.250,177.901 259.321,151.089 232.520 C 124.277 205.718,102.121 183.742,101.853 183.684 C 101.586 183.627,91.260 193.734,78.906 206.145 C 66.553 218.556,63.654 221.547,72.464 212.791 L 88.483 196.872 95.115 203.513 L 101.747 210.154 97.260 214.745 L 92.773 219.336 97.366 214.848 L 101.958 210.360 119.534 227.932 C 129.200 237.597,137.109 245.735,137.109 246.018 C 137.109 246.300,137.253 246.442,137.428 246.334 C 137.603 246.225,140.722 249.116,144.358 252.757 L 150.970 259.377 136.520 273.927 L 122.070 288.477 136.621 274.025 L 151.173 259.573 175.490 283.888 C 188.864 297.261,200.006 308.203,200.249 308.203 C 200.492 308.203,211.510 297.305,224.732 283.984 C 237.955 270.664,248.916 259.766,249.090 259.766 C 249.265 259.766,253.100 263.413,257.614 267.871 L 265.820 275.977 257.715 267.770 C 253.257 263.256,249.609 259.391,249.609 259.181 C 249.609 258.629,262.205 246.094,262.760 246.094 C 263.015 246.094,263.281 245.852,263.350 245.557 C 263.420 245.262,271.265 237.142,280.784 227.514 L 298.092 210.008 322.582 234.496 C 336.052 247.965,347.163 258.984,347.273 258.984 C 347.384 258.984,336.397 247.912,322.859 234.378 L 298.244 209.773 304.863 203.145 C 309.395 198.607,311.622 196.632,311.924 196.883 C 312.226 197.134,312.355 197.015,312.335 196.505 C 312.306 195.784,318.094 189.813,348.802 158.893 L 360.725 146.887 353.947 140.241 C 350.219 136.585,347.143 133.594,347.112 133.594 C 347.081 133.594,336.071 144.624,322.646 158.105 M173.218 138.379 L 172.070 139.648 173.340 138.501 C 174.523 137.432,174.789 137.109,174.487 137.109 C 174.420 137.109,173.849 137.681,173.218 138.379 M170.483 141.113 L 169.336 142.383 170.605 141.236 C 171.789 140.166,172.055 139.844,171.753 139.844 C 171.686 139.844,171.114 140.415,170.483 141.113 M316.602 201.563 C 318.310 203.281,319.796 204.688,319.904 204.688 C 320.011 204.688,318.701 203.281,316.992 201.563 C 315.284 199.844,313.798 198.438,313.690 198.438 C 313.583 198.438,314.893 199.844,316.602 201.563 M325.781 210.669 C 325.781 210.736,326.353 211.308,327.051 211.939 L 328.320 213.086 327.173 211.816 C 326.104 210.633,325.781 210.367,325.781 210.669 M64.841 247.559 L 52.930 259.570 64.941 247.659 C 76.104 236.589,77.129 235.547,76.853 235.547 C 76.798 235.547,71.393 240.952,64.841 247.559 M356.048 250.098 L 351.758 254.492 356.237 250.195 C 358.701 247.832,360.796 245.854,360.892 245.801 C 360.989 245.747,360.904 245.703,360.703 245.703 C 360.502 245.703,358.408 247.681,356.048 250.098 M265.218 248.145 C 266.176 249.165,267.011 250.000,267.074 250.000 C 267.367 250.000,267.057 249.649,265.332 248.031 L 263.477 246.289 265.218 248.145 M289.453 272.461 C 301.590 284.600,311.609 294.531,311.716 294.531 C 311.824 294.531,301.981 284.600,289.844 272.461 C 277.707 260.322,267.688 250.391,267.581 250.391 C 267.473 250.391,277.316 260.322,289.453 272.461 M105.516 277.882 C 94.825 288.575,88.654 295.024,88.788 295.363 C 88.957 295.788,89.007 295.778,89.032 295.314 C 89.049 294.993,96.664 287.127,105.955 277.834 C 115.246 268.541,122.760 260.938,122.653 260.938 C 122.545 260.938,114.834 268.563,105.516 277.882 M274.023 284.375 C 278.531 288.887,282.307 292.578,282.415 292.578 C 282.522 292.578,278.922 288.887,274.414 284.375 C 269.906 279.863,266.130 276.172,266.023 276.172 C 265.915 276.172,269.516 279.863,274.023 284.375 M307.220 299.316 L 302.930 303.711 307.324 299.421 C 311.406 295.436,311.896 294.922,311.614 294.922 C 311.557 294.922,309.580 296.899,307.220 299.316 M287.500 297.852 C 288.667 299.033,289.710 300.000,289.817 300.000 C 289.924 300.000,289.058 299.033,287.891 297.852 C 286.724 296.670,285.681 295.703,285.574 295.703 C 285.466 295.703,286.333 296.670,287.500 297.852 M95.508 302.330 C 98.945 305.867,101.808 308.847,101.870 308.953 C 101.932 309.058,103.338 307.747,104.995 306.041 L 108.008 302.937 105.264 305.570 C 101.821 308.873,102.810 309.230,95.512 302.051 L 89.258 295.898 95.508 302.330 " stroke="none" fill="#1bea83" fill-rule="evenodd"></path><path id="path2" d="M186.719 9.815 C 94.020 16.046,19.460 91.008,13.291 184.180 C 6.470 287.181,84.629 376.369,187.695 383.194 C 295.517 390.334,387.097 304.583,387.097 196.484 C 387.097 87.954,295.380 2.512,186.719 9.815 M300.096 109.176 C 235.527 174.307,200.241 209.767,200.012 209.754 C 199.508 209.726,137.423 147.697,137.552 147.349 C 137.947 146.281,199.130 84.766,199.798 84.766 C 200.018 84.766,211.095 95.664,224.414 108.984 C 237.733 122.305,248.746 133.203,248.887 133.203 C 249.072 133.203,292.385 89.905,297.229 84.879 C 297.706 84.384,298.669 85.199,304.554 91.077 L 311.330 97.845 300.096 109.176 M184.186 127.441 C 175.863 135.874,168.020 143.831,166.757 145.123 L 164.462 147.473 182.155 165.163 L 199.848 182.853 217.404 165.228 C 227.061 155.535,235.041 147.521,235.139 147.419 C 235.397 147.153,200.284 112.109,199.760 112.109 C 199.518 112.109,192.510 119.009,184.186 127.441 M353.947 140.241 L 360.725 146.887 348.802 158.893 C 320.874 187.015,312.299 195.756,312.199 196.204 C 312.141 196.466,323.083 207.663,336.516 221.086 C 349.948 234.510,360.911 245.584,360.879 245.696 C 360.848 245.807,357.769 248.884,354.038 252.532 L 347.254 259.166 322.673 234.587 L 298.092 210.008 280.784 227.514 C 271.265 237.142,263.428 245.219,263.369 245.462 C 263.309 245.705,274.168 256.801,287.498 270.120 C 300.829 283.439,311.688 294.551,311.630 294.814 C 311.494 295.428,298.805 308.203,298.332 308.203 C 298.137 308.203,287.088 297.349,273.778 284.082 C 260.468 270.815,249.411 259.903,249.207 259.832 C 249.003 259.761,238.003 270.616,224.764 283.953 C 211.524 297.291,200.492 308.203,200.249 308.203 C 200.006 308.203,188.855 297.261,175.470 283.887 L 151.133 259.570 126.572 284.235 L 102.011 308.899 95.439 302.292 C 91.825 298.658,88.820 295.469,88.763 295.205 C 88.705 294.942,99.560 283.829,112.884 270.509 C 126.208 257.189,137.109 246.114,137.109 245.898 C 137.109 245.682,129.188 237.595,119.505 227.928 L 101.902 210.352 77.596 234.923 C 64.227 248.438,53.082 259.424,52.829 259.337 C 52.576 259.251,49.407 256.235,45.787 252.636 L 39.205 246.093 70.243 214.825 C 87.314 197.628,101.519 183.610,101.810 183.673 C 102.101 183.737,124.277 205.718,151.089 232.520 C 177.901 259.321,199.936 281.250,200.056 281.250 C 200.274 281.250,231.354 250.063,275.188 205.859 C 300.092 180.745,347.021 133.594,347.112 133.594 C 347.143 133.594,350.219 136.585,353.947 140.241 " stroke="none" fill="#141c2c" fill-rule="evenodd"></path></g></svg>